<?xml version="1.0" encoding="utf-8"?>
<!-- Generator: Adobe Illustrator 27.5.0, SVG Export Plug-In . SVG Version: 6.00 Build 0)  -->
<svg version="1.1" id="Capa_1" xmlns="http://www.w3.org/2000/svg" xmlns:xlink="http://www.w3.org/1999/xlink" x="0px" y="0px"
	 viewBox="0 0 2122 2122" style="enable-background:new 0 0 2122 2122;" xml:space="preserve">
<g>
	<g>
		<path style="fill:#249BBA;" d="M831.579,929.26c-0.117-0.126-0.282-0.197-0.453-0.197c-0.176,0-0.341,0.073-0.458,0.2
			l-287.707,309.673c-0.229,0.248-0.219,0.636,0.024,0.872l102.266,99.264c0.117,0.112,0.273,0.176,0.433,0.176
			c0.131,0,0.326-0.068,0.448-0.19l289.31-298.063c0.229-0.239,0.234-0.616,0.005-0.86L831.579,929.26z"/>
		<path style="fill:#249BBA;" d="M1639.047,314.504l-275.094,40.964c-0.141,0.02-0.268,0.088-0.365,0.193l-262.845,282.91
			c-0.214,0.232-0.224,0.59-0.014,0.831l104.896,122.263c0.112,0.131,0.277,0.212,0.453,0.217h0.019c0.171,0,0.331-0.068,0.448-0.19
			l433.042-446.138c0.185-0.19,0.229-0.48,0.107-0.718C1639.573,314.599,1639.315,314.443,1639.047,314.504z"/>
		<path style="fill:#249BBA;" d="M536.13,305.052c-0.18-0.197-0.463-0.263-0.706-0.156c-0.248,0.105-0.4,0.356-0.38,0.621
			l21.803,277.271c0.015,0.141,0.073,0.275,0.171,0.377l824.277,879.87c0.122,0.132,0.287,0.197,0.453,0.197
			c0.146,0,0.297-0.053,0.414-0.158l106.11-95.137c0.258-0.231,0.277-0.626,0.048-0.882L536.13,305.052z"/>
	</g>
	<g>
		<path style="fill:#52C2EA;" d="M1639.407,314.557c-0.244-0.117-0.526-0.063-0.716,0.129l-433.042,446.138
			c-0.224,0.232-0.234,0.595-0.024,0.841l104.477,121.778c0.112,0.132,0.272,0.209,0.448,0.217h0.024
			c0.166,0,0.321-0.063,0.439-0.18l295.814-291.725c0.103-0.1,0.166-0.229,0.181-0.37l32.75-276.192
			C1639.793,314.928,1639.651,314.672,1639.407,314.557z"/>
		<path style="fill:#52C2EA;" d="M935.448,1040.135c-0.117-0.124-0.278-0.195-0.449-0.198h-0.005c-0.17,0-0.331,0.068-0.448,0.19
			l-289.31,298.063c-0.238,0.246-0.234,0.641,0.015,0.882l102.265,99.264c0.122,0.117,0.278,0.176,0.433,0.176
			c0.156,0,0.317-0.061,0.439-0.181l290.699-286.682c0.239-0.236,0.248-0.624,0.014-0.87L935.448,1040.135z"/>
		<path style="fill:#52C2EA;" d="M809.396,356.876c-0.092-0.107-0.219-0.18-0.356-0.207l-273.256-51.815
			c-0.273-0.049-0.526,0.075-0.658,0.307c-0.131,0.234-0.102,0.524,0.078,0.724l952.189,1062.004
			c0.107,0.122,0.263,0.198,0.429,0.207h0.034c0.151,0,0.302-0.056,0.414-0.158l106.114-95.142c0.253-0.227,0.278-0.614,0.058-0.873
			L809.396,356.876z"/>
	</g>
	<path style="fill:#2A2860;" d="M1711.866,1438.115l184.686-165.583l-159.098-177.439l-138.451,124.132l-263.367-306.977
		l305.954-301.729l40.161-338.643l-337.295,50.224l-267.819,288.262L830.527,323.5l-335.049-63.535l26.728,339.966l283.228,302.331
		l-264.295,284.47l-137.437-133.408l-165.997,171.011l182.012,176.665l-247.089,254.56l171.016,165.993l247.088-254.562
		l177.988,172.762l165.988-171.008l-133.432-129.518l263.632-259.99l264.182,282l-142.616,127.864l159.098,177.449l188.853-169.332
		l236.823,264.139l177.447-159.099L1711.866,1438.115z M1364.046,356.085l275.093-40.964l-32.75,276.192l-295.814,291.725
		l-104.478-121.778l-104.896-122.265L1364.046,356.085z M747.951,1437.888l134.04,130.105l-113.194,116.619l-177.991-172.766
		l-247.09,254.563l-116.619-113.196l247.089-254.562l-182.007-176.665l113.194-116.619l138.045,133.992l287.708-309.673
		l103.868,110.874l103.655,110.645L747.951,1437.888z M1535.858,1542.716l-188.855,169.328l-108.496-121.006l143.24-128.428
		L557.47,582.74l-21.803-277.271l273.257,51.815l785.048,915.046l139.083-124.701l108.492,121.006l-184.684,165.588l236.825,264.138
		l-121.003,108.492L1535.858,1542.716z"/>
	<g>
		<path style="fill:#FFD004;" d="M405.806,1104.919c-0.117-0.112-0.273-0.175-0.434-0.175c-0.214-0.015-0.331,0.068-0.448,0.19
			l-113.194,116.619c-0.239,0.246-0.234,0.641,0.014,0.882l476.618,462.625c0.122,0.117,0.278,0.176,0.434,0.176
			c0.161,0,0.327-0.063,0.448-0.19l113.194-116.619c0.239-0.246,0.234-0.641-0.015-0.882L405.806,1104.919z"/>
		<path style="fill:#FFD004;" d="M1842.009,1268.218l-108.492-121.006c-0.107-0.122-0.263-0.198-0.429-0.207
			c-0.185-0.017-0.331,0.051-0.448,0.158l-494.547,443.41c-0.127,0.112-0.2,0.266-0.209,0.431c-0.01,0.166,0.048,0.326,0.161,0.451
			l108.497,121.006c0.122,0.137,0.292,0.207,0.463,0.207c0.146,0,0.297-0.053,0.415-0.158l494.542-443.41
			C1842.219,1268.868,1842.238,1268.473,1842.009,1268.218z"/>
	</g>
	<g>
		<path style="fill:#BC146D;" d="M474.62,1398.203c-0.117-0.112-0.273-0.176-0.434-0.176c-0.122-0.022-0.327,0.068-0.449,0.19
			L226.65,1652.78c-0.239,0.246-0.234,0.641,0.014,0.882l116.619,113.196c0.117,0.112,0.273,0.176,0.434,0.176
			c0.21-0.022,0.331-0.068,0.449-0.19l247.088-254.562c0.239-0.246,0.234-0.641-0.014-0.882L474.62,1398.203z"/>
		<path style="fill:#BC146D;" d="M1894.15,1697.944l-236.828-264.138c-0.107-0.122-0.263-0.197-0.429-0.207
			c-0.2-0.022-0.331,0.051-0.448,0.158l-121.003,108.495c-0.259,0.232-0.278,0.626-0.049,0.882l236.828,264.136
			c0.122,0.137,0.292,0.207,0.463,0.207c0.146,0,0.297-0.053,0.414-0.158l121.003-108.492c0.127-0.112,0.2-0.265,0.21-0.431
			C1894.321,1698.229,1894.262,1698.068,1894.15,1697.944z"/>
	</g>
</g>
</svg>
